<svg width="505" height="94" viewBox="0 0 505 94" fill="none" xmlns="http://www.w3.org/2000/svg">
<g filter="url(#filter0_dd_1_29)">
<path d="M4.672 91C3.73333 91 2.96533 90.7013 2.368 90.104C1.77067 89.5067 1.472 88.7387 1.472 87.8V4.6C1.472 3.66133 1.77067 2.89333 2.368 2.296C2.96533 1.69866 3.73333 1.39999 4.672 1.39999H62.656C63.5947 1.39999 64.3627 1.69866 64.96 2.296C65.5573 2.89333 65.856 3.66133 65.856 4.6V14.84C65.856 15.6933 65.5573 16.4187 64.96 17.016C64.3627 17.6133 63.5947 17.912 62.656 17.912H21.184V38.008H59.84C60.7787 38.008 61.5467 38.3067 62.144 38.904C62.7413 39.5013 63.04 40.2693 63.04 41.208V50.68C63.04 51.5333 62.7413 52.2587 62.144 52.856C61.5467 53.4533 60.7787 53.752 59.84 53.752H21.184V74.488H63.68C64.6187 74.488 65.3867 74.7867 65.984 75.384C66.5813 75.9813 66.88 76.7493 66.88 77.688V87.8C66.88 88.7387 66.5813 89.5067 65.984 90.104C65.3867 90.7013 64.6187 91 63.68 91H4.672ZM264.547 91C263.608 91 262.84 90.7013 262.243 90.104C261.646 89.5067 261.347 88.7387 261.347 87.8V4.6C261.347 3.66133 261.646 2.89333 262.243 2.296C262.84 1.69866 263.608 1.39999 264.547 1.39999H322.531C323.47 1.39999 324.238 1.69866 324.835 2.296C325.432 2.89333 325.731 3.66133 325.731 4.6V14.84C325.731 15.6933 325.432 16.4187 324.835 17.016C324.238 17.6133 323.47 17.912 322.531 17.912H281.059V38.008H319.715C320.654 38.008 321.422 38.3067 322.019 38.904C322.616 39.5013 322.915 40.2693 322.915 41.208V50.68C322.915 51.5333 322.616 52.2587 322.019 52.856C321.422 53.4533 320.654 53.752 319.715 53.752H281.059V74.488H323.555C324.494 74.488 325.262 74.7867 325.859 75.384C326.456 75.9813 326.755 76.7493 326.755 77.688V87.8C326.755 88.7387 326.456 89.5067 325.859 90.104C325.262 90.7013 324.494 91 323.555 91H264.547Z" fill="#75147C"/>
<path d="M118.705 92.28C111.196 92.28 104.625 91.0427 98.993 88.568C93.361 86.008 89.009 82.1253 85.937 76.92C82.865 71.6293 81.329 64.9307 81.329 56.824V4.6C81.329 3.66133 81.6277 2.89333 82.225 2.296C82.8223 1.69866 83.5903 1.39999 84.529 1.39999H98.481C99.4197 1.39999 100.188 1.69866 100.785 2.296C101.382 2.89333 101.681 3.66133 101.681 4.6V56.696C101.681 63.0107 103.174 67.704 106.161 70.776C109.148 73.848 113.329 75.384 118.705 75.384C123.996 75.384 128.134 73.848 131.121 70.776C134.108 67.704 135.601 63.0107 135.601 56.696V4.6C135.601 3.66133 135.9 2.89333 136.497 2.296C137.18 1.69866 137.948 1.39999 138.801 1.39999H152.881C153.734 1.39999 154.46 1.69866 155.057 2.296C155.654 2.89333 155.953 3.66133 155.953 4.6V56.824C155.953 64.9307 154.417 71.6293 151.345 76.92C148.273 82.1253 143.964 86.008 138.417 88.568C132.87 91.0427 126.3 92.28 118.705 92.28Z" fill="#FFFF54"/>
<path d="M177.297 91C176.358 91 175.59 90.7013 174.993 90.104C174.396 89.5067 174.097 88.7387 174.097 87.8V4.6C174.097 3.66133 174.396 2.89333 174.993 2.296C175.59 1.69866 176.358 1.39999 177.297 1.39999H211.217C221.884 1.39999 230.289 3.87466 236.433 8.824C242.577 13.688 245.649 20.728 245.649 29.944C245.649 36.1733 244.156 41.3787 241.169 45.56C238.182 49.7413 234.172 52.856 229.137 54.904L247.185 86.904C247.441 87.416 247.569 87.8853 247.569 88.312C247.569 88.9947 247.313 89.6347 246.801 90.232C246.289 90.744 245.649 91 244.881 91H230.673C229.137 91 227.985 90.616 227.217 89.848C226.449 88.9947 225.894 88.2267 225.553 87.544L209.937 58.232H194.449V87.8C194.449 88.7387 194.15 89.5067 193.553 90.104C192.956 90.7013 192.188 91 191.249 91H177.297ZM194.449 41.976H210.833C215.526 41.976 218.982 40.9093 221.201 38.776C223.505 36.6427 224.657 33.656 224.657 29.816C224.657 25.976 223.548 22.9467 221.329 20.728C219.11 18.5093 215.612 17.4 210.833 17.4H194.449V41.976Z" fill="#DD9A7F"/>
<path d="M345.172 91C344.233 91 343.465 90.7013 342.868 90.104C342.271 89.5067 341.972 88.7387 341.972 87.8V4.6C341.972 3.66133 342.271 2.89333 342.868 2.296C343.465 1.69866 344.233 1.39999 345.172 1.39999H358.74C359.679 1.39999 360.447 1.69866 361.044 2.296C361.641 2.89333 361.94 3.66133 361.94 4.6V33.784L388.308 3.83199C388.649 3.31999 389.204 2.808 389.972 2.296C390.825 1.69866 391.935 1.39999 393.3 1.39999H408.788C409.556 1.39999 410.196 1.69866 410.708 2.296C411.22 2.808 411.476 3.40533 411.476 4.088C411.476 4.68533 411.305 5.19733 410.964 5.62399L378.068 44.28L413.396 86.776C413.737 87.1173 413.908 87.6293 413.908 88.312C413.908 88.9947 413.652 89.6347 413.14 90.232C412.628 90.744 411.988 91 411.22 91H395.22C393.684 91 392.532 90.6587 391.764 89.976C390.996 89.2933 390.484 88.824 390.228 88.568L361.94 55.8V87.8C361.94 88.7387 361.641 89.5067 361.044 90.104C360.447 90.7013 359.679 91 358.74 91H345.172Z" fill="#EF865B"/>
<path d="M419.599 91C418.831 91 418.191 90.744 417.679 90.232C417.167 89.6347 416.911 88.9947 416.911 88.312C416.911 87.8853 416.954 87.5013 417.039 87.16L447.503 4.856C447.759 3.91733 448.271 3.10666 449.039 2.424C449.807 1.74133 450.874 1.39999 452.239 1.39999H468.623C469.988 1.39999 471.055 1.74133 471.823 2.424C472.591 3.10666 473.103 3.91733 473.359 4.856L503.823 87.16C503.908 87.5013 503.951 87.8853 503.951 88.312C503.951 88.9947 503.695 89.6347 503.183 90.232C502.671 90.744 502.031 91 501.263 91H487.951C486.671 91 485.732 90.7013 485.135 90.104C484.538 89.5067 484.154 88.952 483.983 88.44L478.479 74.104H442.383L436.879 88.44C436.708 88.952 436.324 89.5067 435.727 90.104C435.13 90.7013 434.191 91 432.911 91H419.599ZM447.119 57.592H473.615L460.431 20.728L447.119 57.592Z" fill="#0000F5"/>
</g>
<defs>
<filter id="filter0_dd_1_29" x="0.471985" y="0.399994" width="504.479" height="92.88" filterUnits="userSpaceOnUse" color-interpolation-filters="sRGB">
<feFlood flood-opacity="0" result="BackgroundImageFix"/>
<feColorMatrix in="SourceAlpha" type="matrix" values="0 0 0 0 0 0 0 0 0 0 0 0 0 0 0 0 0 0 127 0" result="hardAlpha"/>
<feOffset dx="-1" dy="-1"/>
<feComposite in2="hardAlpha" operator="out"/>
<feColorMatrix type="matrix" values="0 0 0 0 1 0 0 0 0 1 0 0 0 0 1 0 0 0 1 0"/>
<feBlend mode="normal" in2="BackgroundImageFix" result="effect1_dropShadow_1_29"/>
<feColorMatrix in="SourceAlpha" type="matrix" values="0 0 0 0 0 0 0 0 0 0 0 0 0 0 0 0 0 0 127 0" result="hardAlpha"/>
<feOffset dx="1" dy="1"/>
<feComposite in2="hardAlpha" operator="out"/>
<feColorMatrix type="matrix" values="0 0 0 0 0 0 0 0 0 0 0 0 0 0 0 0 0 0 1 0"/>
<feBlend mode="normal" in2="effect1_dropShadow_1_29" result="effect2_dropShadow_1_29"/>
<feBlend mode="normal" in="SourceGraphic" in2="effect2_dropShadow_1_29" result="shape"/>
</filter>
</defs>
</svg>
